<svg width="89" height="89" viewBox="0 0 89 89" fill="none" xmlns="http://www.w3.org/2000/svg">
<path d="M60.6999 42.8999C58.6999 48.5999 53.1999 52.6999 46.7999 52.6999C40.3999 52.6999 34.9999 48.5999 32.8999 42.8999C21.9999 44.4999 11.1999 47.8999 0.899902 53.2999C5.1999 73.1999 22.8999 88.1999 44.0999 88.1999C66.1999 88.1999 84.3999 71.9999 87.6999 50.8999C78.8999 46.8999 69.8999 44.2999 60.6999 42.8999Z" fill="#AAB2C5"/>
<path d="M46.9 23.2C53.5 23.2 59.1 27.5 61 33.5C70.2 34.7 79.3 37.2 88.1 40.8C86.4 18 67.4 0 44.1 0C20 0 0.4 19.4 0 43.4C10.6 38.4 21.6 35.1 32.8 33.6C34.7 27.6 40.3 23.2 46.9 23.2Z" fill="#AAB2C5"/>
<path d="M46.8999 46.5C51.5943 46.5 55.3999 42.6944 55.3999 38C55.3999 33.3056 51.5943 29.5 46.8999 29.5C42.2055 29.5 38.3999 33.3056 38.3999 38C38.3999 42.6944 42.2055 46.5 46.8999 46.5Z" fill="#AAB2C5"/>
</svg>
